<?xml version="1.0" standalone="no"?>
<!DOCTYPE svg PUBLIC "-//W3C//DTD SVG 20010904//EN"
 "http://www.w3.org/TR/2001/REC-SVG-20010904/DTD/svg10.dtd">
<svg version="1.0" xmlns="http://www.w3.org/2000/svg"
 width="512.000000pt" height="512.000000pt" viewBox="0 0 512.000000 512.000000"
 preserveAspectRatio="xMidYMid meet">
<metadata>
Created by potrace 1.11, written by Peter Selinger 2001-2013
</metadata>
<g transform="translate(0.000000,512.000000) scale(0.100000,-0.100000)"
fill="#000000" stroke="none">
<path d="M2369 5116 c-2 -2 -36 -6 -74 -10 -39 -4 -81 -8 -95 -11 -31 -5 -135
-23 -174 -31 -42 -7 -232 -60 -291 -79 -161 -55 -301 -120 -510 -239 -11 -6
-54 -35 -97 -63 -329 -224 -615 -536 -804 -878 -51 -91 -59 -108 -112 -226
-55 -122 -136 -372 -156 -479 -3 -14 -9 -50 -15 -80 -28 -146 -36 -251 -35
-470 0 -184 3 -238 20 -360 4 -34 6 -45 19 -115 4 -16 13 -59 22 -94 8 -36 16
-72 18 -80 20 -99 114 -341 190 -493 259 -517 714 -953 1228 -1179 50 -22 101
-44 112 -49 85 -38 373 -122 460 -134 11 -2 36 -6 55 -9 230 -41 612 -45 822
-7 29 5 68 12 86 15 71 12 203 45 298 76 471 150 870 420 1203 814 102 121
227 314 310 482 62 123 137 306 146 355 2 10 7 23 10 28 7 12 6 8 44 168 26
110 33 143 47 245 2 15 6 42 9 60 10 56 13 459 5 532 -15 127 -20 159 -39 255
-184 915 -845 1654 -1736 1940 -55 17 -107 33 -115 35 -79 19 -255 55 -295 59
-27 4 -66 9 -85 12 -38 6 -466 15 -471 10z m468 -49 c12 -3 46 -8 75 -11 29
-4 62 -8 73 -10 143 -30 188 -40 235 -54 30 -8 60 -17 65 -18 30 -6 206 -69
254 -91 445 -198 741 -433 1054 -833 32 -42 99 -144 144 -220 49 -84 143 -273
143 -287 0 -5 7 -20 14 -35 32 -60 117 -338 132 -428 2 -14 8 -45 13 -70 10
-45 16 -85 29 -188 9 -77 9 -429 -1 -522 -7 -69 -38 -255 -51 -308 -3 -12 -8
-30 -10 -40 -77 -341 -285 -744 -532 -1032 -59 -69 -233 -241 -289 -285 -27
-22 -52 -42 -55 -45 -3 -3 -23 -19 -45 -36 -255 -195 -572 -350 -876 -429 -90
-24 -121 -31 -170 -39 -19 -3 -43 -7 -54 -10 -26 -5 -103 -16 -190 -26 -68 -7
-459 -5 -520 4 -59 9 -110 17 -137 22 -15 3 -40 7 -57 9 -16 2 -49 9 -73 15
-24 7 -50 13 -58 15 -47 9 -189 53 -287 89 -23 8 -86 35 -140 60 -470 211
-862 562 -1134 1016 -148 246 -276 598 -315 865 -2 17 -7 44 -10 60 -26 152
-25 592 2 720 5 23 12 66 20 115 3 19 15 71 26 115 11 44 21 87 23 95 8 39 70
214 107 299 208 490 581 912 1048 1188 75 44 178 96 290 146 188 84 501 163
725 184 33 3 62 7 64 9 5 5 444 -4 468 -9z"/>
<path d="M2358 4845 c-2 -2 -30 -6 -63 -9 -33 -4 -71 -9 -85 -11 -14 -3 -41
-7 -60 -10 -177 -28 -476 -130 -630 -213 -187 -102 -298 -175 -428 -284 -307
-259 -534 -576 -675 -948 -36 -95 -83 -247 -93 -303 -2 -17 -6 -33 -8 -36 -4
-6 -7 -26 -31 -201 -13 -94 -13 -467 -1 -555 41 -276 109 -498 227 -738 53
-107 201 -343 245 -392 11 -11 41 -47 68 -79 185 -219 442 -420 705 -551 251
-125 480 -195 766 -232 77 -10 440 -10 525 0 768 88 1443 562 1789 1253 34 67
61 126 61 130 0 5 7 22 15 37 25 48 93 268 114 372 41 198 46 249 46 480 0
217 -7 304 -40 465 -3 14 -7 37 -10 51 -9 50 -56 203 -91 298 -227 607 -726
1107 -1335 1334 -88 33 -241 81 -293 91 -197 41 -327 54 -528 54 -103 0 -188
-2 -190 -3z"/>
</g>
</svg>
